<svg width="16" height="12" viewBox="0 0 16 12" fill="none" xmlns="http://www.w3.org/2000/svg">
<g id="vuesax/linear/arrow-left">
<g id="arrow-left">
<path id="Vector (Stroke)" fill-rule="evenodd" clip-rule="evenodd" d="M6.4169 0.499709C6.66098 0.743786 6.66098 1.13951 6.4169 1.38359L1.80051 5.99998L6.4169 10.6164C6.66098 10.8605 6.66098 11.2562 6.4169 11.5003C6.17282 11.7443 5.77709 11.7443 5.53302 11.5003L0.474684 6.44193C0.357474 6.32472 0.291626 6.16574 0.291626 5.99998C0.291626 5.83422 0.357474 5.67525 0.474684 5.55804L5.53302 0.499709C5.77709 0.255631 6.17282 0.255631 6.4169 0.499709Z" fill="white"/>
<path id="Vector (Stroke)_2" fill-rule="evenodd" clip-rule="evenodd" d="M0.43335 6C0.43335 5.65482 0.713172 5.375 1.05835 5.375H15.0834C15.4285 5.375 15.7084 5.65482 15.7084 6C15.7084 6.34518 15.4285 6.625 15.0834 6.625H1.05835C0.713172 6.625 0.43335 6.34518 0.43335 6Z" fill="white"/>
</g>
</g>
</svg>
