<svg width="33" height="36" viewBox="0 0 33 36" fill="none" xmlns="http://www.w3.org/2000/svg">
<g id="vuesax/linear/java-script">
<g id="java-script">
<path id="Vector (Stroke)" fill-rule="evenodd" clip-rule="evenodd" d="M2.91834 3.10812L6.07478 30.021C6.08045 30.0693 6.08329 30.1179 6.08329 30.1666C6.08329 30.249 6.09545 30.298 6.10394 30.3227C6.11213 30.3466 6.12058 30.3588 6.1269 30.3664C6.13792 30.3796 6.18186 30.4236 6.30313 30.4539L6.33553 30.4625L16.5022 33.2958C16.5296 33.3034 16.5566 33.312 16.5833 33.3214C16.61 33.312 16.6371 33.3034 16.6644 33.2958L26.7028 30.4982C26.8774 30.4005 26.9838 30.3085 27.0397 30.2414C27.0695 30.2056 27.079 30.1842 27.0813 30.1783C27.0828 30.1745 27.0833 30.1731 27.0833 30.1666C27.0833 30.1205 27.0858 30.0744 27.0909 30.0285L30.0909 3.02855C30.0934 3.00598 30.0966 2.98348 30.1003 2.96109C30.1145 2.87591 30.0936 2.80248 30.0255 2.72985C29.9488 2.64801 29.8203 2.58325 29.6666 2.58325H3.33329C3.20542 2.58325 3.12778 2.62707 3.06568 2.69805C2.99868 2.77463 2.92994 2.91233 2.91834 3.10812ZM16.4308 33.3863C16.4307 33.3863 16.4318 33.3858 16.4341 33.3851L16.4308 33.3863ZM0.416626 3.16659C0.416626 1.63824 1.49137 0.083252 3.33329 0.083252H29.6666C31.2955 0.083252 32.8596 1.46616 32.5724 3.33409L29.5821 30.2463C29.5431 31.5826 28.5253 32.3848 27.7256 32.7846C27.6541 32.8204 27.5793 32.8492 27.5022 32.8707L17.4326 35.677C17.1556 35.7974 16.8444 35.8749 16.5208 35.8749C16.2584 35.8749 15.934 35.821 15.6288 35.6477L5.67851 32.8746C5.13936 32.7364 4.60746 32.4482 4.20635 31.9668C3.80939 31.4905 3.60047 30.8962 3.58431 30.2483L0.425136 3.31219C0.419467 3.26386 0.416626 3.21525 0.416626 3.16659Z" fill="white"/>
<g id="Group">
<path id="Vector (Stroke)_2" fill-rule="evenodd" clip-rule="evenodd" d="M14.1666 8.4165C14.857 8.4165 15.4166 8.97615 15.4166 9.6665V24.6665C15.4166 25.0597 15.2316 25.4299 14.9172 25.666C14.6029 25.9021 14.1957 25.9766 13.8181 25.8669L8.65145 24.3669C7.98846 24.1745 7.60705 23.481 7.79953 22.818C7.992 22.155 8.68549 21.7736 9.34847 21.9661L12.9166 23.002V9.6665C12.9166 8.97615 13.4763 8.4165 14.1666 8.4165Z" fill="white"/>
<path id="Vector (Stroke)_3" fill-rule="evenodd" clip-rule="evenodd" d="M25.2397 9.50668C25.328 10.1914 24.8446 10.818 24.1599 10.9064L20.0833 11.4324V17.1989L23.8009 16.5993C24.1625 16.5409 24.5315 16.6442 24.8104 16.8817C25.0893 17.1191 25.2499 17.467 25.2499 17.8333V23.1666C25.2499 23.7402 24.8596 24.2402 24.3031 24.3793L18.3031 25.8793C17.6334 26.0468 16.9547 25.6396 16.7873 24.9698C16.6198 24.3001 17.027 23.6214 17.6968 23.454L22.7499 22.1907V19.3011L19.0323 19.9007C18.6707 19.959 18.3017 19.8558 18.0228 19.6183C17.7439 19.3808 17.5833 19.0329 17.5833 18.6666V10.3333C17.5833 9.70479 18.05 9.17402 18.6733 9.09359L23.84 8.42692C24.5246 8.33857 25.1513 8.822 25.2397 9.50668Z" fill="white"/>
</g>
</g>
</g>
</svg>
