<svg width="16" height="16" viewBox="0 0 16 16" fill="none" xmlns="http://www.w3.org/2000/svg">
<g id="vuesax/linear/star">
<g id="star">
<path id="Vector (Stroke)" fill-rule="evenodd" clip-rule="evenodd" d="M9.65368 2.18016C9.3045 1.47836 8.75868 0.960938 8.06852 0.960938C7.37912 0.960938 6.8316 1.47747 6.47913 2.17874L5.31739 4.50221L5.31559 4.50584C5.28074 4.577 5.19741 4.67828 5.07186 4.77138C4.94673 4.86415 4.82534 4.91493 4.74753 4.92832L4.74683 4.92844L2.64377 5.27785C1.88492 5.40432 1.24762 5.77362 1.04107 6.42045C0.834665 7.06681 1.13913 7.73709 1.68216 8.28011L3.31849 9.91645C3.38289 9.98085 3.45504 10.1022 3.50029 10.2603C3.54527 10.4174 3.54907 10.5599 3.52892 10.6513L3.52863 10.6526L3.06092 12.6748C2.86592 13.5176 2.93356 14.3543 3.53342 14.792C4.13292 15.2294 4.95085 15.0397 5.69585 14.5976L7.665 13.4319L7.66624 13.4312C7.7548 13.38 7.90068 13.3407 8.07182 13.3407C8.24422 13.3407 8.38711 13.3806 8.47028 13.4299L10.4433 14.5979C11.1892 15.0384 12.0081 15.2316 12.6076 14.7946C13.2079 14.3569 13.2722 13.5187 13.0779 12.6753L12.6101 10.6526L12.6098 10.6513C12.5896 10.5599 12.5934 10.4174 12.6384 10.2603C12.6837 10.1022 12.7558 9.98085 12.8202 9.91645L14.4553 8.28131L14.456 8.28064C15.0024 7.73762 15.3079 7.06682 15.0998 6.41955C14.892 5.77313 14.2535 5.40428 13.4952 5.27789L11.3904 4.92819" fill="#FF7020"/>
</g>
</g>
</svg>
